<?xml version="1.0" encoding="utf-8"?>
<!-- Generator: Adobe Illustrator 16.0.0, SVG Export Plug-In . SVG Version: 6.00 Build 0)  -->
<!DOCTYPE svg PUBLIC "-//W3C//DTD SVG 1.1//EN" "http://www.w3.org/Graphics/SVG/1.1/DTD/svg11.dtd">
<svg version="1.1" id="Layer_1" xmlns="http://www.w3.org/2000/svg" xmlns:xlink="http://www.w3.org/1999/xlink" x="0px" y="0px"
	 width="400px" height="280px" viewBox="0 0 400 280" enable-background="new 0 0 400 280" xml:space="preserve">
<g>
	<path d="M36.234,56.118h7.498v39.169h-7.498V56.118z"/>
	<path d="M73.165,88.852l0.112,5.539c0,0-6.435,1.567-11.639,1.567c-8.449,0-12.03-4.196-12.03-14.268
		c0-9.96,4.197-15.052,12.366-15.052c8.225,0,12.198,4.197,12.198,12.646l-0.559,5.204H57.162c0.056,3.357,1.623,4.869,5.652,4.869
		C67.402,89.355,73.165,88.852,73.165,88.852z M66.786,78.779c0-4.532-1.287-5.987-4.812-5.987c-3.582,0-4.812,1.735-4.868,5.987
		H66.786z"/>
	<path d="M88.163,73.688v11.471c0,2.797,0,4.085,2.35,4.085c1.567,0,4.252-0.112,4.252-0.112l0.336,5.986
		c0,0-3.75,0.839-5.708,0.839c-6.771,0-8.729-2.573-8.729-10.631V73.688h-3.302v-6.379h3.302v-7.777h7.498v7.777h6.882v6.379H88.163
		z"/>
	<path d="M108.532,73.688v11.471c0,2.797,0,4.085,2.35,4.085c1.567,0,4.252-0.112,4.252-0.112l0.336,5.986
		c0,0-3.75,0.839-5.708,0.839c-6.771,0-8.729-2.573-8.729-10.631V73.688h-3.302v-6.379h3.302v-7.777h7.498v7.777h6.882v6.379
		H108.532z"/>
	<path d="M142.442,88.852l0.112,5.539c0,0-6.435,1.567-11.638,1.567c-8.449,0-12.03-4.196-12.03-14.268
		c0-9.96,4.196-15.052,12.366-15.052c8.226,0,12.199,4.197,12.199,12.646l-0.56,5.204h-16.452c0.057,3.357,1.624,4.869,5.652,4.869
		C136.679,89.355,142.442,88.852,142.442,88.852z M136.063,78.779c0-4.532-1.287-5.987-4.812-5.987
		c-3.581,0-4.812,1.735-4.868,5.987H136.063z"/>
	<path d="M148.823,67.309h7.442v2.966c0,0,4.7-2.798,8.953-3.638v7.554c-4.924,0.951-8.897,2.35-8.897,2.35v18.745h-7.498V67.309z"
		/>
	<path d="M191.07,87.677c0.113,1.679,0.336,2.35,1.846,2.63l-0.224,5.651c-3.749,0-5.651-0.391-8.001-1.958
		c0,0-4.028,1.958-8.225,1.958c-5.875,0-8.674-3.245-8.674-9.176c0-6.323,3.638-8.114,9.792-8.561l5.987-0.447v-1.735
		c0-2.406-1.063-3.021-3.301-3.021c-3.693,0-10.52,0.447-10.52,0.447l-0.224-5.204c0,0,5.987-1.623,11.359-1.623
		c7.273,0,10.183,2.854,10.183,9.4V87.677z M178.48,83.424c-1.959,0.168-3.134,1.119-3.134,3.134c0,1.958,0.728,3.301,2.742,3.301
		c2.406,0,5.484-0.895,5.484-0.895v-5.987L178.48,83.424z"/>
	<path d="M229.961,67.869l-0.225,5.931c0,0-4.419-0.448-6.547-0.448c-5.371,0-6.379,2.07-6.379,7.666
		c0,6.267,1.064,8.226,6.436,8.226c2.126,0,6.49-0.448,6.49-0.448l0.225,5.987c0,0-5.988,1.175-9.121,1.175
		c-8.338,0-11.639-4.42-11.639-14.939c0-9.904,3.47-14.381,11.808-14.381C224.253,66.637,229.961,67.869,229.961,67.869z"/>
	<path d="M256.933,87.677c0.111,1.679,0.335,2.35,1.846,2.63l-0.224,5.651c-3.748,0-5.65-0.391-8.002-1.958
		c0,0-4.029,1.958-8.225,1.958c-5.877,0-8.674-3.245-8.674-9.176c0-6.323,3.638-8.114,9.792-8.561l5.987-0.447v-1.735
		c0-2.406-1.062-3.021-3.301-3.021c-3.693,0-10.52,0.447-10.52,0.447l-0.224-5.204c0,0,5.987-1.623,11.358-1.623
		c7.274,0,10.185,2.854,10.185,9.4V87.677z M244.342,83.424c-1.957,0.168-3.133,1.119-3.133,3.134c0,1.958,0.728,3.301,2.741,3.301
		c2.406,0,5.483-0.895,5.483-0.895v-5.987L244.342,83.424z"/>
	<path d="M264.095,95.287V67.309h7.442v1.567c0,0,3.805-2.238,6.995-2.238c7.833,0,9.849,4.924,9.849,13.485v15.164h-7.499v-14.94
		c0-4.252-0.559-6.994-4.195-6.994c-2.63,0-5.093,1.007-5.093,1.007v20.928H264.095z"/>
	<path d="M300.022,67.309l4.476,21.599h1.566l4.701-21.599h7.61l-6.715,27.978h-12.759l-6.715-27.978H300.022z"/>
	<path d="M343.781,87.677c0.111,1.679,0.335,2.35,1.847,2.63l-0.224,5.651c-3.749,0-5.651-0.391-8.003-1.958
		c0,0-4.028,1.958-8.225,1.958c-5.876,0-8.674-3.245-8.674-9.176c0-6.323,3.638-8.114,9.793-8.561l5.987-0.447v-1.735
		c0-2.406-1.062-3.021-3.302-3.021c-3.693,0-10.52,0.447-10.52,0.447l-0.224-5.204c0,0,5.987-1.623,11.358-1.623
		c7.275,0,10.185,2.854,10.185,9.4V87.677z M331.19,83.424c-1.957,0.168-3.132,1.119-3.132,3.134c0,1.958,0.728,3.301,2.741,3.301
		c2.406,0,5.483-0.895,5.483-0.895v-5.987L331.19,83.424z"/>
	<path d="M371.032,74.303c0,0-6.938-0.896-10.184-0.896c-3.244,0-3.917,0.728-3.917,2.239c0,1.287,1.063,1.566,6.211,2.517
		c6.491,1.176,8.786,3.079,8.786,8.729c0,6.546-4.254,9.064-11.247,9.064c-4.142,0-10.743-1.342-10.743-1.342l0.224-6.267
		c0,0,6.938,0.896,9.792,0.896c3.581,0,4.532-0.728,4.532-2.183c0-1.231-0.616-1.791-5.764-2.63
		c-6.044-1.007-9.232-2.461-9.232-8.617c0-6.491,4.924-9.12,10.799-9.12c4.028,0,10.855,1.398,10.855,1.398L371.032,74.303z"/>
	<path d="M39.141,143.364h-5.873v-2.203l3.419-9.354h3.188l-3.713,9.039h2.979v-3.88h2.895v3.88h1.321v2.518h-1.321v2.285h-2.895
		V143.364z"/>
	<path d="M55.422,138.812c0,5.243-1.93,7.089-5.369,7.089c-3.44,0-5.369-1.846-5.369-7.089c0-5.244,1.929-7.257,5.369-7.257
		C53.492,131.556,55.422,133.569,55.422,138.812z M47.661,138.812c0,3.397,0.734,4.571,2.413,4.571c1.678,0,2.37-1.174,2.37-4.571
		c0-3.607-0.692-4.741-2.37-4.741C48.396,134.072,47.661,135.205,47.661,138.812z"/>
	<path d="M67.173,138.812c0,5.243-1.929,7.089-5.369,7.089c-3.439,0-5.369-1.846-5.369-7.089c0-5.244,1.93-7.257,5.369-7.257
		C65.244,131.556,67.173,133.569,67.173,138.812z M59.413,138.812c0,3.397,0.734,4.571,2.412,4.571c1.678,0,2.371-1.174,2.371-4.571
		c0-3.607-0.692-4.741-2.371-4.741C60.147,134.072,59.413,135.205,59.413,138.812z"/>
	<path d="M69.34,135.163h0.734v0.881c0,0,1.72-1.069,3.628-1.069c2.559,0,3.587,1.698,3.587,5.265c0,3.9-1.196,5.6-4.447,5.6
		c-1.132,0-2.286-0.189-2.768-0.295v4.93H69.34V135.163z M70.075,136.757v8.117c0.461,0.083,1.636,0.293,2.768,0.293
		c2.706,0,3.671-1.363,3.671-4.928c0-3.378-1.007-4.594-2.811-4.594C71.899,135.646,70.075,136.757,70.075,136.757z"/>
	<path d="M79.666,135.163l3.125,4.677l3.146-4.677h0.86l-3.566,5.242l3.544,5.244h-0.86l-3.124-4.676l-3.125,4.676h-0.86
		l3.544-5.244l-3.544-5.242H79.666z"/>
	<path d="M96.01,129.919c0,0-1.992,5.453-1.992,9.417c0,3.9,1.992,8.934,1.992,8.934h-0.733c0,0-2.035-4.739-2.035-8.934
		c0-4.195,2.035-9.417,2.035-9.417H96.01z"/>
	<path d="M105.534,144.286c0.063,0.609,0.839,0.818,1.573,0.881l-0.042,0.65c-0.902,0-1.699-0.23-2.161-0.881
		c0,0-2.139,0.902-4.236,0.902c-1.72,0-2.748-1.029-2.748-3.062c0-1.783,0.839-2.811,2.895-3.02l3.984-0.42v-1.092
		c0-1.823-0.796-2.558-2.328-2.558c-1.531,0-3.963,0.356-3.963,0.356l-0.063-0.692c0,0,2.349-0.377,4.027-0.377
		c2.119,0,3.062,1.11,3.062,3.271V144.286z M100.899,140.405c-1.636,0.169-2.202,0.924-2.202,2.371c0,1.531,0.713,2.391,1.992,2.391
		c1.972,0,4.11-0.859,4.11-0.859v-4.299L100.899,140.405z"/>
	<path d="M108.958,145.649v-10.486h0.734v0.838c0,0,1.867-1.026,3.671-1.026c2.852,0,3.439,1.153,3.439,5.222v5.453h-0.734v-5.41
		c0-3.566-0.377-4.594-2.705-4.594c-1.867,0-3.671,1.049-3.671,1.049v8.955H108.958z"/>
	<path d="M127.505,145.649h-0.734v-0.881c0,0-1.72,1.07-3.629,1.07c-1.3,0-3.565-0.168-3.565-5.265c0-3.607,0.985-5.6,4.425-5.6
		c0.986,0,2.245,0.167,2.769,0.251v-4.887h0.734V145.649z M126.771,144.077v-8.181c-0.545-0.083-1.951-0.251-2.769-0.251
		c-2.978,0-3.649,1.804-3.649,4.929c0,4.235,1.616,4.593,2.79,4.593C124.947,145.167,126.771,144.077,126.771,144.077z"/>
	<path d="M135.441,145.649v-10.486h0.734v0.838c0,0,1.636-1.026,3.439-1.026c1.552,0,2.307,0.335,2.811,1.132
		c0,0,1.803-1.132,3.858-1.132c2.853,0,3.439,1.153,3.439,5.222v5.453h-0.733v-5.41c0-3.566-0.377-4.594-2.706-4.594
		c-2.034,0-3.606,1.027-3.606,1.027c0.293,0.797,0.377,1.951,0.377,3.523v5.453h-0.734v-5.41c0-3.566-0.377-4.594-2.706-4.594
		c-1.867,0-3.439,1.049-3.439,1.049v8.955H135.441z"/>
	<path d="M161.059,140.218c0,4.215-0.797,5.621-4.257,5.621c-3.461,0-4.258-1.406-4.258-5.621c0-3.881,1.154-5.243,4.258-5.243
		C159.905,134.975,161.059,136.337,161.059,140.218z M160.283,140.218c0-3.523-0.796-4.572-3.481-4.572s-3.481,1.049-3.481,4.572
		c0,3.607,0.377,4.949,3.481,4.949C159.905,145.167,160.283,143.825,160.283,140.218z"/>
	<path d="M165.196,135.835v5.494c0,3.125,0.231,3.859,1.93,3.859c0.587,0,2.055-0.168,2.055-0.168l0.063,0.671
		c0,0-1.384,0.169-2.118,0.169c-1.909,0-2.664-0.714-2.664-3.734v-6.291h-1.657v-0.672h1.657v-3.419h0.733v3.419h3.818v0.672
		H165.196z"/>
	<path d="M179.147,140.218c0,4.215-0.797,5.621-4.257,5.621c-3.461,0-4.257-1.406-4.257-5.621c0-3.881,1.153-5.243,4.257-5.243
		C177.994,134.975,179.147,136.337,179.147,140.218z M178.371,140.218c0-3.523-0.796-4.572-3.481-4.572s-3.481,1.049-3.481,4.572
		c0,3.607,0.377,4.949,3.481,4.949C177.994,145.167,178.371,143.825,178.371,140.218z"/>
	<path d="M182.068,135.163h0.734v1.637c0,0,1.846-1.406,4.153-1.847v0.755c-2.056,0.42-4.153,1.783-4.153,1.783v8.158h-0.734
		V135.163z"/>
	<path d="M200.131,135.981c0,0-2.138-0.336-3.566-0.336c-1.342,0-2.809,0.398-2.809,2.098c0,1.3,0.565,1.697,2.978,2.076
		c2.748,0.439,3.817,0.838,3.817,2.811c0,2.453-1.509,3.209-3.986,3.209c-1.195,0-3.46-0.336-3.46-0.336l0.084-0.693
		c0,0,2.266,0.357,3.335,0.357c1.971,0,3.25-0.461,3.25-2.475c0-1.51-0.755-1.805-3.25-2.182c-2.454-0.377-3.545-0.775-3.545-2.727
		c0-2.223,1.889-2.81,3.586-2.81c1.616,0,3.608,0.314,3.608,0.314L200.131,135.981z"/>
	<path d="M204.583,135.835v5.494c0,3.125,0.23,3.859,1.93,3.859c0.588,0,2.057-0.168,2.057-0.168l0.063,0.671
		c0,0-1.386,0.169-2.12,0.169c-1.907,0-2.663-0.714-2.663-3.734v-6.291h-1.657v-0.672h1.657v-3.419h0.733v3.419h3.817v0.672H204.583
		z"/>
	<path d="M217.761,144.979l0.041,0.671c0,0-2.349,0.189-3.881,0.189c-3.125-0.021-3.942-2.014-3.942-5.434
		c0-4.152,1.846-5.431,4.236-5.431c2.581,0,3.986,1.404,3.986,5.034v0.691h-7.446c0,2.895,0.755,4.467,3.187,4.467
		C215.41,145.167,217.761,144.979,217.761,144.979z M217.424,140.028c0-3.209-1.028-4.383-3.209-4.383
		c-2.097,0-3.46,1.195-3.46,4.383H217.424z"/>
	<path d="M220.952,135.163h0.734v0.881c0,0,1.72-1.069,3.629-1.069c2.559,0,3.586,1.698,3.586,5.265c0,3.9-1.195,5.6-4.446,5.6
		c-1.133,0-2.285-0.189-2.769-0.295v4.93h-0.734V135.163z M221.687,136.757v8.117c0.461,0.083,1.636,0.293,2.769,0.293
		c2.705,0,3.67-1.363,3.67-4.928c0-3.378-1.006-4.594-2.81-4.594S221.687,136.757,221.687,136.757z"/>
	<path d="M238.346,135.981c0,0-2.139-0.336-3.566-0.336c-1.342,0-2.809,0.398-2.809,2.098c0,1.3,0.565,1.697,2.979,2.076
		c2.747,0.439,3.816,0.838,3.816,2.811c0,2.453-1.51,3.209-3.986,3.209c-1.195,0-3.459-0.336-3.459-0.336l0.083-0.693
		c0,0,2.267,0.357,3.335,0.357c1.972,0,3.25-0.461,3.25-2.475c0-1.51-0.755-1.805-3.25-2.182c-2.453-0.377-3.545-0.775-3.545-2.727
		c0-2.223,1.889-2.81,3.586-2.81c1.616,0,3.609,0.314,3.609,0.314L238.346,135.981z"/>
	<path d="M241.453,129.919c0,0,2.034,5.223,2.034,9.417c0,4.194-2.034,8.934-2.034,8.934h-0.733c0,0,1.992-5.033,1.992-8.934
		c0-3.964-1.992-9.417-1.992-9.417H241.453z"/>
	<path d="M250.856,135.163l2.662,9.815h0.23l3.105-9.606h0.797l3.104,9.606h0.23l2.664-9.815h0.775l-2.83,10.486h-1.428
		l-2.915-9.396l-2.915,9.396h-1.426l-2.832-10.486H250.856z"/>
	<path d="M266.846,130.968h0.734v1.153h-0.734V130.968z M266.846,135.163h0.734v10.486h-0.734V135.163z"/>
	<path d="M278.384,145.649h-0.734v-0.881c0,0-1.72,1.07-3.629,1.07c-1.3,0-3.566-0.168-3.566-5.265c0-3.607,0.987-5.6,4.427-5.6
		c0.985,0,2.244,0.167,2.769,0.251v-4.887h0.734V145.649z M277.649,144.077v-8.181c-0.547-0.083-1.95-0.251-2.769-0.251
		c-2.979,0-3.649,1.804-3.649,4.929c0,4.235,1.614,4.593,2.789,4.593C275.823,145.167,277.649,144.077,277.649,144.077z"/>
	<path d="M283.044,135.835v5.494c0,3.125,0.23,3.859,1.93,3.859c0.588,0,2.057-0.168,2.057-0.168l0.062,0.671
		c0,0-1.385,0.169-2.119,0.169c-1.907,0-2.664-0.714-2.664-3.734v-6.291h-1.656v-0.672h1.656v-3.419h0.734v3.419h3.816v0.672
		H283.044z"/>
	<path d="M288.879,145.649v-15.311h0.734v5.453c0,0,1.847-0.817,3.649-0.817c2.853,0,3.439,1.153,3.439,5.222v5.453h-0.734v-5.41
		c0-3.566-0.377-4.594-2.705-4.594c-1.866,0-3.649,0.839-3.649,0.839v9.165H288.879z"/>
	<path d="M33.792,170.832v-2.454l2.957-2.998c1.804-1.847,2.81-2.916,2.81-4.258c0-1.406-0.649-1.825-2.265-1.825
		c-1.426,0-3.271,0.314-3.271,0.314l-0.147-2.244c0,0,2.055-0.63,4.152-0.63c3.167,0,4.509,1.385,4.509,3.965
		c0,2.139-0.818,3.355-3.104,5.432l-2.412,2.182h5.747v2.517H33.792z"/>
	<path d="M55.107,160.534c0,1.656-0.314,2.202-1.509,3.167c1.111,0.923,1.719,1.636,1.719,3.376c0,2.916-2.391,4.007-5.307,4.007
		c-2.915,0-5.243-0.86-5.243-3.776c0-1.908,0.629-2.684,1.74-3.606c-1.195-0.965-1.51-1.72-1.51-3.188
		c0-2.391,1.992-3.775,5.012-3.775C52.989,156.737,55.107,158.102,55.107,160.534z M52.212,166.637c0-0.671-0.419-1.257-1.237-1.573
		H49.13c-0.86,0.336-1.258,0.902-1.258,1.573c0,1.28,0.713,1.847,2.139,1.847C51.437,168.483,52.212,167.917,52.212,166.637z
		 M48.102,160.976c0,0.67,0.357,1.174,1.028,1.635h1.845c0.671-0.461,1.028-0.965,1.028-1.635c0-1.051-0.671-1.637-1.95-1.637
		C48.794,159.339,48.102,159.925,48.102,160.976z"/>
	<path d="M67.173,163.995c0,5.242-1.929,7.089-5.369,7.089c-3.439,0-5.369-1.847-5.369-7.089c0-5.244,1.93-7.258,5.369-7.258
		C65.244,156.737,67.173,158.751,67.173,163.995z M59.413,163.995c0,3.397,0.734,4.572,2.412,4.572c1.678,0,2.371-1.175,2.371-4.572
		c0-3.607-0.692-4.74-2.371-4.74C60.147,159.255,59.413,160.388,59.413,163.995z"/>
	<path d="M73.956,170.832v-15.312h0.734v5.455c0,0,1.846-0.818,3.649-0.818c2.852,0,3.439,1.153,3.439,5.223v5.452h-0.733v-5.411
		c0-3.565-0.378-4.593-2.706-4.593c-1.866,0-3.649,0.839-3.649,0.839v9.165H73.956z"/>
	<path d="M92.334,170.161l0.042,0.671c0,0-2.349,0.188-3.88,0.188c-3.125-0.021-3.942-2.014-3.942-5.432
		c0-4.152,1.845-5.432,4.236-5.432c2.58,0,3.985,1.404,3.985,5.033v0.691h-7.446c0,2.895,0.755,4.468,3.188,4.468
		C89.985,170.35,92.334,170.161,92.334,170.161z M91.999,165.211c0-3.209-1.027-4.383-3.209-4.383c-2.097,0-3.46,1.195-3.46,4.383
		H91.999z"/>
	<path d="M95.528,156.15h0.734v1.153h-0.734V156.15z M95.528,160.346h0.734v10.486h-0.734V160.346z"/>
	<path d="M99.139,172.51c0-1.384,0.65-1.866,1.782-2.685c-0.336-0.21-0.461-0.713-0.461-1.363c0-0.314,0.629-1.635,0.629-1.635
		c-0.965-0.316-1.803-1.176-1.803-3.189c0-2.496,1.342-3.502,3.586-3.502c1.132,0,2.222,0.271,2.222,0.271l2.937-0.062v0.733h-2.265
		c0.524,0.482,0.839,1.111,0.839,2.559c0,2.58-1.237,3.439-3.817,3.439c-0.168,0-0.881-0.041-1.133-0.084
		c0,0-0.482,1.196-0.482,1.469c0,1.027,0.126,1.133,2.873,1.133c2.601,0,3.713,0.42,3.713,3.021c0,2.265-1.343,3.229-4.468,3.229
		C99.81,175.845,99.139,174.984,99.139,172.51z M101.466,170.202c-1.217,0.84-1.573,1.279-1.573,2.286
		c0,1.993,0.524,2.685,3.419,2.685c2.6,0,3.67-0.755,3.67-2.558c0-2.118-0.86-2.349-2.979-2.349
		C103.144,170.267,101.466,170.202,101.466,170.202z M105.829,163.638c0-2.097-0.776-2.831-2.978-2.831
		c-1.972,0-2.81,0.734-2.81,2.831c0,2.098,0.838,2.769,2.81,2.769C105.053,166.406,105.829,165.735,105.829,163.638z"/>
	<path d="M110.091,170.832v-15.312h0.734v5.455c0,0,1.846-0.818,3.649-0.818c2.853,0,3.439,1.153,3.439,5.223v5.452h-0.733v-5.411
		c0-3.565-0.378-4.593-2.706-4.593c-1.867,0-3.649,0.839-3.649,0.839v9.165H110.091z"/>
	<path d="M122.367,161.017v5.494c0,3.126,0.231,3.86,1.93,3.86c0.587,0,2.055-0.169,2.055-0.169l0.063,0.672
		c0,0-1.384,0.168-2.119,0.168c-1.908,0-2.663-0.713-2.663-3.734v-6.291h-1.658v-0.671h1.658v-3.419h0.733v3.419h3.817v0.671
		H122.367z"/>
	<path d="M40.713,210.814l-0.063,1.279c0,0-1.677-0.188-2.475-0.188c-2.412,0-3.062,1.048-3.062,3.858
		c0,3.104,0.482,4.237,3.083,4.237c0.797,0,2.475-0.19,2.475-0.19l0.063,1.302c0,0-1.951,0.294-2.916,0.294
		c-3.335,0-4.32-1.532-4.32-5.643c0-3.796,1.237-5.265,4.362-5.265C38.826,210.499,40.713,210.814,40.713,210.814z"/>
	<path d="M51.478,215.827c0,3.816-0.943,5.579-4.489,5.579c-3.523,0-4.488-1.763-4.488-5.579c0-3.608,1.175-5.328,4.488-5.328
		C50.325,210.499,51.478,212.219,51.478,215.827z M49.863,215.827c0-2.915-0.629-3.964-2.874-3.964
		c-2.223,0-2.873,1.049-2.873,3.964c0,2.978,0.398,4.216,2.873,4.216C49.485,220.043,49.863,218.805,49.863,215.827z"/>
	<path d="M54.042,221.196V210.71h1.552v0.733c0,0,1.699-0.944,3.25-0.944c2.895,0,3.544,1.427,3.544,5.16v5.537h-1.551V215.7
		c0-2.768-0.315-3.795-2.266-3.795c-1.509,0-2.957,0.775-2.957,0.775v8.516H54.042z"/>
	<path d="M65.898,210.71l2.454,9.123h0.776l2.538-9.123h1.615l-2.957,10.486h-3.146L64.22,210.71H65.898z"/>
	<path d="M82.85,219.833l0.042,1.236c0,0-2.391,0.337-4.089,0.337c-3.125,0-4.153-1.826-4.153-5.39c0-3.986,1.72-5.518,4.384-5.518
		c2.789,0,4.216,1.469,4.216,4.907l-0.084,1.196h-6.921c0,2.243,0.692,3.419,2.748,3.419
		C80.564,220.021,82.85,219.833,82.85,219.833z M81.676,215.345c0-2.602-0.798-3.523-2.643-3.523c-1.783,0-2.79,0.985-2.811,3.523
		H81.676z"/>
	<path d="M85.708,210.71h1.552v1.426c0,0,1.825-1.259,3.838-1.656v1.593c-1.972,0.398-3.817,1.427-3.817,1.427v7.697h-1.573V210.71z
		"/>
	<path d="M95.066,212.072v5.013c0,2.287,0.147,2.937,1.51,2.937c0.587,0,1.867-0.125,1.867-0.125l0.105,1.3
		c0,0-1.405,0.23-2.139,0.23c-2.16,0-2.895-0.818-2.895-3.838v-5.517h-1.489v-1.362h1.489v-3.209h1.552v3.209h3.334v1.362H95.066z"
		/>
	<path d="M105.538,210.71l2.622,9.123h0.692l2.643-9.123h1.573l-4.362,15.142h-1.573l1.364-4.655h-1.553l-2.978-10.486H105.538z"/>
	<path d="M123.413,215.827c0,3.816-0.943,5.579-4.488,5.579c-3.524,0-4.489-1.763-4.489-5.579c0-3.608,1.175-5.328,4.489-5.328
		C122.259,210.499,123.413,212.219,123.413,215.827z M121.798,215.827c0-2.915-0.629-3.964-2.873-3.964
		c-2.224,0-2.875,1.049-2.875,3.964c0,2.978,0.399,4.216,2.875,4.216C121.419,220.043,121.798,218.805,121.798,215.827z"/>
	<path d="M134.094,210.71v10.486h-1.573v-0.734c0,0-1.573,0.944-3.104,0.944c-2.937,0-3.544-1.363-3.544-5.223v-5.474h1.573v5.451
		c0,2.895,0.252,3.84,2.202,3.84c1.552,0,2.874-0.775,2.874-0.775v-8.516H134.094z"/>
	<path d="M137.121,210.71h1.552v1.426c0,0,1.825-1.259,3.838-1.656v1.593c-1.972,0.398-3.817,1.427-3.817,1.427v7.697h-1.573V210.71
		z"/>
	<path d="M151.094,212.072v5.013c0,2.287,0.147,2.937,1.51,2.937c0.587,0,1.867-0.125,1.867-0.125l0.105,1.3
		c0,0-1.406,0.23-2.139,0.23c-2.16,0-2.895-0.818-2.895-3.838v-5.517h-1.489v-1.362h1.489v-3.209h1.552v3.209h3.334v1.362H151.094z"
		/>
	<path d="M164.102,219.833l0.042,1.236c0,0-2.391,0.337-4.089,0.337c-3.125,0-4.153-1.826-4.153-5.39
		c0-3.986,1.72-5.518,4.384-5.518c2.789,0,4.215,1.469,4.215,4.907l-0.084,1.196h-6.92c0,2.243,0.691,3.419,2.748,3.419
		C161.815,220.021,164.102,219.833,164.102,219.833z M162.927,215.345c0-2.602-0.797-3.523-2.643-3.523
		c-1.783,0-2.79,0.985-2.811,3.523H162.927z"/>
	<path d="M167.547,210.71l2.559,4.11l2.559-4.11h1.719l-3.335,5.2l3.314,5.286h-1.72l-2.538-4.091l-2.559,4.091h-1.72l3.293-5.243
		l-3.293-5.243H167.547z"/>
	<path d="M178.458,212.072v5.013c0,2.287,0.146,2.937,1.509,2.937c0.588,0,1.867-0.125,1.867-0.125l0.105,1.3
		c0,0-1.405,0.23-2.139,0.23c-2.161,0-2.895-0.818-2.895-3.838v-5.517h-1.489v-1.362h1.489v-3.209h1.553v3.209h3.334v1.362H178.458z
		"/>
	<path d="M188.343,206.515h1.573v1.824h-1.573V206.515z M188.343,210.71h1.573v10.486h-1.573V210.71z"/>
	<path d="M192.938,221.196V210.71h1.552v0.733c0,0,1.699-0.944,3.251-0.944c2.893,0,3.543,1.427,3.543,5.16v5.537h-1.552V215.7
		c0-2.768-0.314-3.795-2.265-3.795c-1.509,0-2.958,0.775-2.958,0.775v8.516H192.938z"/>
	<path d="M215.788,212.24c0,0-2.329-0.335-3.672-0.335c-1.3,0-2.285,0.355-2.285,1.594c0,0.985,0.502,1.258,2.726,1.636
		c2.622,0.441,3.608,0.965,3.608,2.999c0,2.454-1.552,3.272-4.069,3.272c-1.342,0-3.69-0.399-3.69-0.399l0.084-1.363
		c0,0,2.391,0.357,3.46,0.357c1.72,0,2.644-0.378,2.644-1.804c0-1.092-0.547-1.363-2.832-1.72c-2.37-0.378-3.502-0.818-3.502-2.916
		c0-2.308,1.866-3.062,3.773-3.062c1.573,0,3.797,0.399,3.797,0.399L215.788,212.24z"/>
	<path d="M218.58,221.196v-15.06h1.573v5.159c0,0,1.679-0.797,3.23-0.797c2.873,0,3.544,1.427,3.544,5.16v5.537h-1.573V215.7
		c0-2.768-0.314-3.795-2.244-3.795c-1.489,0-2.957,0.629-2.957,0.629v8.662H218.58z"/>
	<path d="M237.254,219.246c0.041,0.607,0.545,0.838,1.216,0.922l-0.062,1.238c-1.112,0-1.867-0.21-2.495-0.839
		c0,0-1.889,0.839-3.776,0.839c-1.909,0-2.957-1.092-2.957-3.209c0-2.014,1.048-2.895,3.208-3.104l3.293-0.314v-0.901
		c0-1.469-0.629-1.993-1.887-1.993c-1.469,0-3.964,0.273-3.964,0.273l-0.063-1.195c0,0,2.308-0.463,4.11-0.463
		c2.371,0,3.378,1.091,3.378,3.378V219.246z M232.577,216.268c-1.279,0.126-1.783,0.734-1.783,1.887c0,1.218,0.524,1.93,1.593,1.93
		c1.553,0,3.293-0.65,3.293-0.65v-3.46L232.577,216.268z"/>
	<path d="M240.362,210.71h1.553v0.755c0,0,1.593-0.966,3.146-0.966c2.644,0,3.796,1.615,3.796,5.328c0,4.11-1.342,5.579-4.571,5.579
		c-0.985,0-2.057-0.168-2.35-0.23v4.676h-1.573V210.71z M241.936,212.743v7.067c0.272,0.043,1.364,0.232,2.266,0.232
		c2.308,0,3.062-1.197,3.062-4.216c0-2.874-0.902-3.922-2.434-3.922C243.404,211.905,241.936,212.743,241.936,212.743z"/>
	<path d="M259.161,219.833l0.043,1.236c0,0-2.391,0.337-4.09,0.337c-3.126,0-4.153-1.826-4.153-5.39c0-3.986,1.72-5.518,4.384-5.518
		c2.788,0,4.215,1.469,4.215,4.907l-0.084,1.196h-6.922c0,2.243,0.693,3.419,2.748,3.419
		C256.875,220.021,259.161,219.833,259.161,219.833z M257.986,215.345c0-2.602-0.796-3.523-2.642-3.523
		c-1.783,0-2.791,0.985-2.812,3.523H257.986z"/>
	<path d="M268.982,212.24c0,0-2.329-0.335-3.672-0.335c-1.3,0-2.285,0.355-2.285,1.594c0,0.985,0.504,1.258,2.726,1.636
		c2.622,0.441,3.608,0.965,3.608,2.999c0,2.454-1.552,3.272-4.069,3.272c-1.342,0-3.69-0.399-3.69-0.399l0.084-1.363
		c0,0,2.391,0.357,3.46,0.357c1.72,0,2.644-0.378,2.644-1.804c0-1.092-0.547-1.363-2.832-1.72c-2.37-0.378-3.502-0.818-3.502-2.916
		c0-2.308,1.866-3.062,3.774-3.062c1.572,0,3.796,0.399,3.796,0.399L268.982,212.24z"/>
	<path d="M272.007,218.846h1.72v2.351h-1.72V218.846z M272.029,206.683h1.656l-0.105,9.731h-1.447L272.029,206.683z"/>
</g>
</svg>
